<?xml version="1.0" encoding="UTF-8" standalone="no"?>
<svg
   xmlns:dc="http://purl.org/dc/elements/1.1/"
   xmlns:cc="http://creativecommons.org/ns#"
   xmlns:rdf="http://www.w3.org/1999/02/22-rdf-syntax-ns#"
   xmlns:svg="http://www.w3.org/2000/svg"
   xmlns="http://www.w3.org/2000/svg"
   xmlns:sodipodi="http://sodipodi.sourceforge.net/DTD/sodipodi-0.dtd"
   xmlns:inkscape="http://www.inkscape.org/namespaces/inkscape"
   version="1.1"
   width="870.7mm"
   height="111.7mm"
   viewBox=" 0 0 3085.160017 395.787727"
   id="svg26"
   sodipodi:docname="caseplans.svg"
   inkscape:version="0.92.3 (2405546, 2018-03-11)">
  <metadata
     id="metadata32">
    <rdf:RDF>
      <cc:Work
         rdf:about="">
        <dc:format>image/svg+xml</dc:format>
        <dc:type
           rdf:resource="http://purl.org/dc/dcmitype/StillImage" />
        <dc:title></dc:title>
      </cc:Work>
    </rdf:RDF>
  </metadata>
  <defs
     id="defs30" />
  <sodipodi:namedview
     pagecolor="#ffffff"
     bordercolor="#666666"
     borderopacity="1"
     objecttolerance="10"
     gridtolerance="10"
     guidetolerance="10"
     inkscape:pageopacity="0"
     inkscape:pageshadow="2"
     inkscape:window-width="1920"
     inkscape:window-height="1017"
     id="namedview28"
     showgrid="false"
     inkscape:measure-start="109.933,151.493"
     inkscape:measure-end="117.18,151.669"
     inkscape:document-units="mm"
     inkscape:zoom="0.42542398"
     inkscape:cx="1897.7338"
     inkscape:cy="6.7423053"
     inkscape:window-x="-8"
     inkscape:window-y="1016"
     inkscape:window-maximized="1"
     inkscape:current-layer="svg26" />
  <!-- Front-->
  <g
     transform="translate(22.5000185, 22.5000185) "
     id="g4">
    <polygon
       style="stroke:#000000; fill:none; stroke-width:0.90000074"
       points="0, 0 26.574825, 0 26.574825, 10.62993 53.14965, 10.62993 53.14965, 0 74.40951, 0 74.40951, 10.62993 95.66937, 10.62993 95.66937, 0 116.92922999999999, 0 116.92922999999999, 10.62993 138.18909, 10.62993 138.18909, 0 159.44895, 0 159.44895, 10.62993 180.70881, 10.62993 180.70881, 0 201.96867, 0 201.96867, 10.62993 223.22853, 10.62993 223.22853, 0 244.48839, 0 244.48839, 10.62993 265.74825, 10.62993 265.74825, 0 287.00811, 0 287.00811, 10.62993 308.26797, 10.62993 308.26797, 0 329.52783, 0 329.52783, 10.62993 350.78769, 10.62993 350.78769, 0 372.04755, 0 372.04755, 10.62993 393.30741, 10.62993 393.30741, 0 414.56727, 0 414.56727, 10.62993 435.82713, 10.62993 435.82713, 0 457.08699, 0 457.08699, 10.62993 478.34685, 10.62993 478.34685, 0 499.60671, 0 499.60671, 10.62993 520.86657, 10.62993 520.86657, 0 542.12643, 0 542.12643, 10.62993 563.3862899999999, 10.62993 563.3862899999999, 0 584.6461499999999, 0 584.6461499999999, 10.62993 605.9060099999999, 10.62993 605.9060099999999, 0 627.1658699999999, 0 627.1658699999999, 10.62993 648.4257299999999, 10.62993 648.4257299999999, 0 669.6855899999999, 0 669.6855899999999, 10.62993 690.9454499999999, 10.62993 690.9454499999999, 0 712.2053099999999, 0 712.2053099999999, 10.62993 733.46517, 10.62993 733.46517, 0 754.72503, 0 754.72503, 10.62993 775.98489, 10.62993 775.98489, 0 797.24475, 0 797.24475, 10.62993 818.50461, 10.62993 818.50461, 0 839.76447, 0 839.76447, 10.62993 861.02433, 10.62993 861.02433, 0 882.28419, 0 882.28419, 10.62993 903.54405, 10.62993 903.54405, 0 924.80391, 0 924.80391, 10.62993 946.06377, 10.62993 946.06377, 0 967.32363, 0 967.32363, 10.62993 988.58349, 10.62993 988.58349, 0 1009.84335, 0 1009.84335, 10.62993 1031.10321, 10.62993 1031.10321, 0 1052.36307, 0 1052.36307, 10.62993 1073.62293, 10.62993 1073.62293, 0 1094.88279, 0 1094.88279, 10.62993 1116.14265, 10.62993 1116.14265, 0 1137.4025100000001, 0 1137.4025100000001, 10.62993 1158.66237, 10.62993 1158.66237, 0 1179.9222300000001, 0 1179.9222300000001, 10.62993 1201.18209, 10.62993 1201.18209, 0 1222.4419500000001, 0 1222.4419500000001, 10.62993 1243.70181, 10.62993 1243.70181, 0 1264.9616700000001, 0 1264.9616700000001, 10.62993 1286.22153, 10.62993 1286.22153, 0 1307.4813900000001, 0 1307.4813900000001, 10.62993 1328.74125, 10.62993 1328.74125, 0 1350.0011100000002, 0 1350.0011100000002, 10.62993 1376.575935, 10.62993 1376.575935, 0 1403.15076, 0 1403.15076, 23.385845999999997 1392.52083, 23.385845999999997 1392.52083, 46.771691999999994 1403.15076, 46.771691999999994 1403.15076, 70.15753799999999 1392.52083, 70.15753799999999 1392.52083, 93.54338399999999 1403.15076, 93.54338399999999 1403.15076, 116.92923 1376.575935, 116.92923 1376.575935, 106.2993 1350.0011100000002, 106.2993 1350.0011100000002, 116.92923 1328.74125, 116.92923 1328.74125, 106.2993 1307.4813900000001, 106.2993 1307.4813900000001, 116.92923 1286.22153, 116.92923 1286.22153, 106.2993 1264.9616700000001, 106.2993 1264.9616700000001, 116.92923 1243.70181, 116.92923 1243.70181, 106.2993 1222.4419500000001, 106.2993 1222.4419500000001, 116.92923 1201.18209, 116.92923 1201.18209, 106.2993 1179.9222300000001, 106.2993 1179.9222300000001, 116.92923 1158.66237, 116.92923 1158.66237, 106.2993 1137.4025100000001, 106.2993 1137.4025100000001, 116.92923 1116.14265, 116.92923 1116.14265, 106.2993 1094.88279, 106.2993 1094.88279, 116.92923 1073.62293, 116.92923 1073.62293, 106.2993 1052.36307, 106.2993 1052.36307, 116.92923 1031.10321, 116.92923 1031.10321, 106.2993 1009.84335, 106.2993 1009.84335, 116.92923 988.58349, 116.92923 988.58349, 106.2993 967.32363, 106.2993 967.32363, 116.92923 946.06377, 116.92923 946.06377, 106.2993 924.80391, 106.2993 924.80391, 116.92923 903.54405, 116.92923 903.54405, 106.2993 882.28419, 106.2993 882.28419, 116.92923 861.02433, 116.92923 861.02433, 106.2993 839.76447, 106.2993 839.76447, 116.92923 818.50461, 116.92923 818.50461, 106.2993 797.24475, 106.2993 797.24475, 116.92923 775.98489, 116.92923 775.98489, 106.2993 754.72503, 106.2993 754.72503, 116.92923 733.46517, 116.92923 733.46517, 106.2993 712.2053099999999, 106.2993 712.2053099999999, 116.92923 690.9454499999999, 116.92923 690.9454499999999, 106.2993 669.6855899999999, 106.2993 669.6855899999999, 116.92923 648.4257299999999, 116.92923 648.4257299999999, 106.2993 627.1658699999999, 106.2993 627.1658699999999, 116.92923 605.9060099999999, 116.92923 605.9060099999999, 106.2993 584.6461499999999, 106.2993 584.6461499999999, 116.92923 563.3862899999999, 116.92923 563.3862899999999, 106.2993 542.12643, 106.2993 542.12643, 116.92923 520.86657, 116.92923 520.86657, 106.2993 499.60671, 106.2993 499.60671, 116.92923 478.34685, 116.92923 478.34685, 106.2993 457.08699, 106.2993 457.08699, 116.92923 435.82713, 116.92923 435.82713, 106.2993 414.56727, 106.2993 414.56727, 116.92923 393.30741, 116.92923 393.30741, 106.2993 372.04755, 106.2993 372.04755, 116.92923 350.78769, 116.92923 350.78769, 106.2993 329.52783, 106.2993 329.52783, 116.92923 308.26797, 116.92923 308.26797, 106.2993 287.00811, 106.2993 287.00811, 116.92923 265.74825, 116.92923 265.74825, 106.2993 244.48839, 106.2993 244.48839, 116.92923 223.22853, 116.92923 223.22853, 106.2993 201.96867, 106.2993 201.96867, 116.92923 180.70881, 116.92923 180.70881, 106.2993 159.44895, 106.2993 159.44895, 116.92923 138.18909, 116.92923 138.18909, 106.2993 116.92922999999999, 106.2993 116.92922999999999, 116.92923 95.66937, 116.92923 95.66937, 106.2993 74.40951, 106.2993 74.40951, 116.92923 53.14965, 116.92923 53.14965, 106.2993 26.574825, 106.2993 26.574825, 116.92923 0, 116.92922999999999 0, 93.54338399999999 10.62993, 93.54338399999999 10.62993, 70.15753799999999 0, 70.15753799999999 0, 46.771691999999994 10.62993, 46.771691999999994 10.62993, 23.385845999999997 0, 23.385845999999997 "
       id="polygon2" />
  </g>
  <!-- Back-->
  <g
     transform="translate(1425.6507785000001, 22.5000185) "
     id="g8">
    <polygon
       style="stroke:#000000; fill:none; stroke-width:0.90000074"
       points="0, 0 26.574825, 0 26.574825, 10.62993 53.14965, 10.62993 53.14965, 0 74.40951, 0 74.40951, 10.62993 95.66937, 10.62993 95.66937, 0 116.92922999999999, 0 116.92922999999999, 10.62993 138.18909, 10.62993 138.18909, 0 159.44895, 0 159.44895, 10.62993 180.70881, 10.62993 180.70881, 0 201.96867, 0 201.96867, 10.62993 223.22853, 10.62993 223.22853, 0 244.48839, 0 244.48839, 10.62993 265.74825, 10.62993 265.74825, 0 287.00811, 0 287.00811, 10.62993 308.26797, 10.62993 308.26797, 0 329.52783, 0 329.52783, 10.62993 350.78769, 10.62993 350.78769, 0 372.04755, 0 372.04755, 10.62993 393.30741, 10.62993 393.30741, 0 414.56727, 0 414.56727, 10.62993 435.82713, 10.62993 435.82713, 0 457.08699, 0 457.08699, 10.62993 478.34685, 10.62993 478.34685, 0 499.60671, 0 499.60671, 10.62993 520.86657, 10.62993 520.86657, 0 542.12643, 0 542.12643, 10.62993 563.3862899999999, 10.62993 563.3862899999999, 0 584.6461499999999, 0 584.6461499999999, 10.62993 605.9060099999999, 10.62993 605.9060099999999, 0 627.1658699999999, 0 627.1658699999999, 10.62993 648.4257299999999, 10.62993 648.4257299999999, 0 669.6855899999999, 0 669.6855899999999, 10.62993 690.9454499999999, 10.62993 690.9454499999999, 0 712.2053099999999, 0 712.2053099999999, 10.62993 733.46517, 10.62993 733.46517, 0 754.72503, 0 754.72503, 10.62993 775.98489, 10.62993 775.98489, 0 797.24475, 0 797.24475, 10.62993 818.50461, 10.62993 818.50461, 0 839.76447, 0 839.76447, 10.62993 861.02433, 10.62993 861.02433, 0 882.28419, 0 882.28419, 10.62993 903.54405, 10.62993 903.54405, 0 924.80391, 0 924.80391, 10.62993 946.06377, 10.62993 946.06377, 0 967.32363, 0 967.32363, 10.62993 988.58349, 10.62993 988.58349, 0 1009.84335, 0 1009.84335, 10.62993 1031.10321, 10.62993 1031.10321, 0 1052.36307, 0 1052.36307, 10.62993 1073.62293, 10.62993 1073.62293, 0 1094.88279, 0 1094.88279, 10.62993 1116.14265, 10.62993 1116.14265, 0 1137.4025100000001, 0 1137.4025100000001, 10.62993 1158.66237, 10.62993 1158.66237, 0 1179.9222300000001, 0 1179.9222300000001, 10.62993 1201.18209, 10.62993 1201.18209, 0 1222.4419500000001, 0 1222.4419500000001, 10.62993 1243.70181, 10.62993 1243.70181, 0 1264.9616700000001, 0 1264.9616700000001, 10.62993 1286.22153, 10.62993 1286.22153, 0 1307.4813900000001, 0 1307.4813900000001, 10.62993 1328.74125, 10.62993 1328.74125, 0 1350.0011100000002, 0 1350.0011100000002, 10.62993 1376.575935, 10.62993 1376.575935, 0 1403.15076, 0 1403.15076, 23.385845999999997 1392.52083, 23.385845999999997 1392.52083, 46.771691999999994 1403.15076, 46.771691999999994 1403.15076, 70.15753799999999 1392.52083, 70.15753799999999 1392.52083, 93.54338399999999 1403.15076, 93.54338399999999 1403.15076, 116.92923 1376.575935, 116.92923 1376.575935, 106.2993 1350.0011100000002, 106.2993 1350.0011100000002, 116.92923 1328.74125, 116.92923 1328.74125, 106.2993 1307.4813900000001, 106.2993 1307.4813900000001, 116.92923 1286.22153, 116.92923 1286.22153, 106.2993 1264.9616700000001, 106.2993 1264.9616700000001, 116.92923 1243.70181, 116.92923 1243.70181, 106.2993 1222.4419500000001, 106.2993 1222.4419500000001, 116.92923 1201.18209, 116.92923 1201.18209, 106.2993 1179.9222300000001, 106.2993 1179.9222300000001, 116.92923 1158.66237, 116.92923 1158.66237, 106.2993 1137.4025100000001, 106.2993 1137.4025100000001, 116.92923 1116.14265, 116.92923 1116.14265, 106.2993 1094.88279, 106.2993 1094.88279, 116.92923 1073.62293, 116.92923 1073.62293, 106.2993 1052.36307, 106.2993 1052.36307, 116.92923 1031.10321, 116.92923 1031.10321, 106.2993 1009.84335, 106.2993 1009.84335, 116.92923 988.58349, 116.92923 988.58349, 106.2993 967.32363, 106.2993 967.32363, 116.92923 946.06377, 116.92923 946.06377, 106.2993 924.80391, 106.2993 924.80391, 116.92923 903.54405, 116.92923 903.54405, 106.2993 882.28419, 106.2993 882.28419, 116.92923 861.02433, 116.92923 861.02433, 106.2993 839.76447, 106.2993 839.76447, 116.92923 818.50461, 116.92923 818.50461, 106.2993 797.24475, 106.2993 797.24475, 116.92923 775.98489, 116.92923 775.98489, 106.2993 754.72503, 106.2993 754.72503, 116.92923 733.46517, 116.92923 733.46517, 106.2993 712.2053099999999, 106.2993 712.2053099999999, 116.92923 690.9454499999999, 116.92923 690.9454499999999, 106.2993 669.6855899999999, 106.2993 669.6855899999999, 116.92923 648.4257299999999, 116.92923 648.4257299999999, 106.2993 627.1658699999999, 106.2993 627.1658699999999, 116.92923 605.9060099999999, 116.92923 605.9060099999999, 106.2993 584.6461499999999, 106.2993 584.6461499999999, 116.92923 563.3862899999999, 116.92923 563.3862899999999, 106.2993 542.12643, 106.2993 542.12643, 116.92923 520.86657, 116.92923 520.86657, 106.2993 499.60671, 106.2993 499.60671, 116.92923 478.34685, 116.92923 478.34685, 106.2993 457.08699, 106.2993 457.08699, 116.92923 435.82713, 116.92923 435.82713, 106.2993 414.56727, 106.2993 414.56727, 116.92923 393.30741, 116.92923 393.30741, 106.2993 372.04755, 106.2993 372.04755, 116.92923 350.78769, 116.92923 350.78769, 106.2993 329.52783, 106.2993 329.52783, 116.92923 308.26797, 116.92923 308.26797, 106.2993 287.00811, 106.2993 287.00811, 116.92923 265.74825, 116.92923 265.74825, 106.2993 244.48839, 106.2993 244.48839, 116.92923 223.22853, 116.92923 223.22853, 106.2993 201.96867, 106.2993 201.96867, 116.92923 180.70881, 116.92923 180.70881, 106.2993 159.44895, 106.2993 159.44895, 116.92923 138.18909, 116.92923 138.18909, 106.2993 116.92922999999999, 106.2993 116.92922999999999, 116.92923 95.66937, 116.92923 95.66937, 106.2993 74.40951, 106.2993 74.40951, 116.92923 53.14965, 116.92923 53.14965, 106.2993 26.574825, 106.2993 26.574825, 116.92923 0, 116.92922999999999 0, 93.54338399999999 10.62993, 93.54338399999999 10.62993, 70.15753799999999 0, 70.15753799999999 0, 46.771691999999994 10.62993, 46.771691999999994 10.62993, 23.385845999999997 0, 23.385845999999997 "
       id="polygon6" />
  </g>
  <!-- Left-->
  <g
     transform="translate(2828.8015385, 22.5000185) "
     id="g12">
    <polygon
       style="stroke:#000000; fill:none; stroke-width:0.90000074"
       points="10.62993, 0 31.889789999999998, 0 31.889789999999998, 10.62993 63.779579999999996, 10.62993 63.779579999999996, 0 85.03944, 0 85.03944, 10.62993 106.29929999999999, 10.62993 106.29929999999999, 0 127.55915999999999, 0 127.55915999999999, 10.62993 148.81902, 10.62993 148.81902, 0 170.07888, 0 170.07888, 10.62993 201.96866999999997, 10.62993 201.96866999999997, 0 223.22853, 0 223.22853, 23.385845999999997 233.85846, 23.385845999999997 233.85846, 46.771691999999994 223.22853, 46.771691999999994 223.22853, 70.15753799999999 233.85846, 70.15753799999999 233.85846, 93.54338399999999 223.22853, 93.54338399999999 223.22852999999998, 116.92923 201.96866999999997, 116.92923 201.96866999999997, 106.2993 170.07888, 106.2993 170.07888, 116.92923 148.81902, 116.92923 148.81902, 106.2993 127.55915999999999, 106.2993 127.55915999999999, 116.92923 106.29929999999999, 116.92923 106.29929999999999, 106.2993 85.03944, 106.2993 85.03944, 116.92923 63.779579999999996, 116.92923 63.779579999999996, 106.2993 31.889789999999998, 106.2993 31.889789999999998, 116.92923 10.62993, 116.92922999999999 10.62993, 93.54338399999999 0, 93.54338399999999 0, 70.15753799999999 10.62993, 70.15753799999999 10.62993, 46.771691999999994 0, 46.771691999999994 0, 23.385845999999997 10.62993, 23.385845999999997 "
       id="polygon10" />
  </g>
  <!-- Right-->
  <g
     transform="translate(2828.8015385, 139.4292485) "
     id="g16">
    <polygon
       style="stroke:#000000; fill:none; stroke-width:0.90000074"
       points="10.62993, 0 31.889789999999998, 0 31.889789999999998, 10.62993 63.779579999999996, 10.62993 63.779579999999996, 0 85.03944, 0 85.03944, 10.62993 106.29929999999999, 10.62993 106.29929999999999, 0 127.55915999999999, 0 127.55915999999999, 10.62993 148.81902, 10.62993 148.81902, 0 170.07888, 0 170.07888, 10.62993 201.96866999999997, 10.62993 201.96866999999997, 0 223.22853, 0 223.22853, 23.385845999999997 233.85846, 23.385845999999997 233.85846, 46.771691999999994 223.22853, 46.771691999999994 223.22853, 70.15753799999999 233.85846, 70.15753799999999 233.85846, 93.54338399999999 223.22853, 93.54338399999999 223.22852999999998, 116.92923 201.96866999999997, 116.92923 201.96866999999997, 106.2993 170.07888, 106.2993 170.07888, 116.92923 148.81902, 116.92923 148.81902, 106.2993 127.55915999999999, 106.2993 127.55915999999999, 116.92923 106.29929999999999, 116.92923 106.29929999999999, 106.2993 85.03944, 106.2993 85.03944, 116.92923 63.779579999999996, 116.92923 63.779579999999996, 106.2993 31.889789999999998, 106.2993 31.889789999999998, 116.92923 10.62993, 116.92922999999999 10.62993, 93.54338399999999 0, 93.54338399999999 0, 70.15753799999999 10.62993, 70.15753799999999 10.62993, 46.771691999999994 0, 46.771691999999994 0, 23.385845999999997 10.62993, 23.385845999999997 "
       id="polygon14" />
  </g>
  <!-- Top-->
  <g
     transform="translate(22.5000185, 139.4292485) "
     id="g20">
    <polygon
       style="stroke:#000000; fill:none; stroke-width:0.90000074"
       points="10.62993, 10.62993 26.574825, 10.62993 26.574825, 0 53.14965, 0 53.14965, 10.62993 74.40951, 10.62993 74.40951, 0 95.66937, 0 95.66937, 10.62993 116.92922999999999, 10.62993 116.92922999999999, 0 138.18909, 0 138.18909, 10.62993 159.44895, 10.62993 159.44895, 0 180.70881, 0 180.70881, 10.62993 201.96867, 10.62993 201.96867, 0 223.22853, 0 223.22853, 10.62993 244.48839, 10.62993 244.48839, 0 265.74825, 0 265.74825, 10.62993 287.00811, 10.62993 287.00811, 0 308.26797, 0 308.26797, 10.62993 329.52783, 10.62993 329.52783, 0 350.78769, 0 350.78769, 10.62993 372.04755, 10.62993 372.04755, 0 393.30741, 0 393.30741, 10.62993 414.56727, 10.62993 414.56727, 0 435.82713, 0 435.82713, 10.62993 457.08699, 10.62993 457.08699, 0 478.34685, 0 478.34685, 10.62993 499.60671, 10.62993 499.60671, 0 520.86657, 0 520.86657, 10.62993 542.12643, 10.62993 542.12643, 0 563.3862899999999, 0 563.3862899999999, 10.62993 584.6461499999999, 10.62993 584.6461499999999, 0 605.9060099999999, 0 605.9060099999999, 10.62993 627.1658699999999, 10.62993 627.1658699999999, 0 648.4257299999999, 0 648.4257299999999, 10.62993 669.6855899999999, 10.62993 669.6855899999999, 0 690.9454499999999, 0 690.9454499999999, 10.62993 712.2053099999999, 10.62993 712.2053099999999, 0 733.46517, 0 733.46517, 10.62993 754.72503, 10.62993 754.72503, 0 775.98489, 0 775.98489, 10.62993 797.24475, 10.62993 797.24475, 0 818.50461, 0 818.50461, 10.62993 839.76447, 10.62993 839.76447, 0 861.02433, 0 861.02433, 10.62993 882.28419, 10.62993 882.28419, 0 903.54405, 0 903.54405, 10.62993 924.80391, 10.62993 924.80391, 0 946.06377, 0 946.06377, 10.62993 967.32363, 10.62993 967.32363, 0 988.58349, 0 988.58349, 10.62993 1009.84335, 10.62993 1009.84335, 0 1031.10321, 0 1031.10321, 10.62993 1052.36307, 10.62993 1052.36307, 0 1073.62293, 0 1073.62293, 10.62993 1094.88279, 10.62993 1094.88279, 0 1116.14265, 0 1116.14265, 10.62993 1137.4025100000001, 10.62993 1137.4025100000001, 0 1158.66237, 0 1158.66237, 10.62993 1179.9222300000001, 10.62993 1179.9222300000001, 0 1201.18209, 0 1201.18209, 10.62993 1222.4419500000001, 10.62993 1222.4419500000001, 0 1243.70181, 0 1243.70181, 10.62993 1264.9616700000001, 10.62993 1264.9616700000001, 0 1286.22153, 0 1286.22153, 10.62993 1307.4813900000001, 10.62993 1307.4813900000001, 0 1328.74125, 0 1328.74125, 10.62993 1350.0011100000002, 10.62993 1350.0011100000002, 0 1376.575935, 0 1376.575935, 10.62993 1392.52083, 10.62993 1392.52083, 31.889789999999998 1403.15076, 31.889789999999998 1403.15076, 63.779579999999996 1392.52083, 63.779579999999996 1392.52083, 85.03944 1403.15076, 85.03944 1403.15076, 106.29929999999999 1392.52083, 106.29929999999999 1392.52083, 127.55915999999999 1403.15076, 127.55915999999999 1403.15076, 148.81902 1392.52083, 148.81902 1392.52083, 170.07888 1403.15076, 170.07888 1403.15076, 201.96866999999997 1392.52083, 201.96866999999997 1392.52083, 223.22853 1376.575935, 223.22853 1376.575935, 233.85846 1350.0011100000002, 233.85846 1350.0011100000002, 223.22853 1328.74125, 223.22853 1328.74125, 233.85846 1307.4813900000001, 233.85846 1307.4813900000001, 223.22853 1286.22153, 223.22853 1286.22153, 233.85846 1264.9616700000001, 233.85846 1264.9616700000001, 223.22853 1243.70181, 223.22853 1243.70181, 233.85846 1222.4419500000001, 233.85846 1222.4419500000001, 223.22853 1201.18209, 223.22853 1201.18209, 233.85846 1179.9222300000001, 233.85846 1179.9222300000001, 223.22853 1158.66237, 223.22853 1158.66237, 233.85846 1137.4025100000001, 233.85846 1137.4025100000001, 223.22853 1116.14265, 223.22853 1116.14265, 233.85846 1094.88279, 233.85846 1094.88279, 223.22853 1073.62293, 223.22853 1073.62293, 233.85846 1052.36307, 233.85846 1052.36307, 223.22853 1031.10321, 223.22853 1031.10321, 233.85846 1009.84335, 233.85846 1009.84335, 223.22853 988.58349, 223.22853 988.58349, 233.85846 967.32363, 233.85846 967.32363, 223.22853 946.06377, 223.22853 946.06377, 233.85846 924.80391, 233.85846 924.80391, 223.22853 903.54405, 223.22853 903.54405, 233.85846 882.28419, 233.85846 882.28419, 223.22853 861.02433, 223.22853 861.02433, 233.85846 839.76447, 233.85846 839.76447, 223.22853 818.50461, 223.22853 818.50461, 233.85846 797.24475, 233.85846 797.24475, 223.22853 775.98489, 223.22853 775.98489, 233.85846 754.72503, 233.85846 754.72503, 223.22853 733.46517, 223.22853 733.46517, 233.85846 712.2053099999999, 233.85846 712.2053099999999, 223.22853 690.9454499999999, 223.22853 690.9454499999999, 233.85846 669.6855899999999, 233.85846 669.6855899999999, 223.22853 648.4257299999999, 223.22853 648.4257299999999, 233.85846 627.1658699999999, 233.85846 627.1658699999999, 223.22853 605.9060099999999, 223.22853 605.9060099999999, 233.85846 584.6461499999999, 233.85846 584.6461499999999, 223.22853 563.3862899999999, 223.22853 563.3862899999999, 233.85846 542.12643, 233.85846 542.12643, 223.22853 520.86657, 223.22853 520.86657, 233.85846 499.60671, 233.85846 499.60671, 223.22853 478.34685, 223.22853 478.34685, 233.85846 457.08699, 233.85846 457.08699, 223.22853 435.82713, 223.22853 435.82713, 233.85846 414.56727, 233.85846 414.56727, 223.22853 393.30741, 223.22853 393.30741, 233.85846 372.04755, 233.85846 372.04755, 223.22853 350.78769, 223.22853 350.78769, 233.85846 329.52783, 233.85846 329.52783, 223.22853 308.26797, 223.22853 308.26797, 233.85846 287.00811, 233.85846 287.00811, 223.22853 265.74825, 223.22853 265.74825, 233.85846 244.48839, 233.85846 244.48839, 223.22853 223.22853, 223.22853 223.22853, 233.85846 201.96867, 233.85846 201.96867, 223.22853 180.70881, 223.22853 180.70881, 233.85846 159.44895, 233.85846 159.44895, 223.22853 138.18909, 223.22853 138.18909, 233.85846 116.92922999999999, 233.85846 116.92922999999999, 223.22853 95.66937, 223.22853 95.66937, 233.85846 74.40951, 233.85846 74.40951, 223.22853 53.14965, 223.22853 53.14965, 233.85846 26.574825, 233.85846 26.574825, 223.22853 10.62993, 223.22852999999998 10.62993, 201.96866999999997 0, 201.96866999999997 0, 170.07888 10.62993, 170.07888 10.62993, 148.81902 0, 148.81902 0, 127.55915999999999 10.62993, 127.55915999999999 10.62993, 106.29929999999999 0, 106.29929999999999 0, 85.03944 10.62993, 85.03944 10.62993, 63.779579999999996 0, 63.779579999999996 0, 31.889789999999998 10.62993, 31.889789999999998 "
       id="polygon18" />
  </g>
  <!-- Bottom-->
  <g
     transform="translate(1425.6507785000001, 139.4292485) "
     id="g24">
    <polygon
       style="stroke:#000000; fill:none; stroke-width:0.90000074"
       points="10.62993, 10.62993 26.574825, 10.62993 26.574825, 0 53.14965, 0 53.14965, 10.62993 74.40951, 10.62993 74.40951, 0 95.66937, 0 95.66937, 10.62993 116.92922999999999, 10.62993 116.92922999999999, 0 138.18909, 0 138.18909, 10.62993 159.44895, 10.62993 159.44895, 0 180.70881, 0 180.70881, 10.62993 201.96867, 10.62993 201.96867, 0 223.22853, 0 223.22853, 10.62993 244.48839, 10.62993 244.48839, 0 265.74825, 0 265.74825, 10.62993 287.00811, 10.62993 287.00811, 0 308.26797, 0 308.26797, 10.62993 329.52783, 10.62993 329.52783, 0 350.78769, 0 350.78769, 10.62993 372.04755, 10.62993 372.04755, 0 393.30741, 0 393.30741, 10.62993 414.56727, 10.62993 414.56727, 0 435.82713, 0 435.82713, 10.62993 457.08699, 10.62993 457.08699, 0 478.34685, 0 478.34685, 10.62993 499.60671, 10.62993 499.60671, 0 520.86657, 0 520.86657, 10.62993 542.12643, 10.62993 542.12643, 0 563.3862899999999, 0 563.3862899999999, 10.62993 584.6461499999999, 10.62993 584.6461499999999, 0 605.9060099999999, 0 605.9060099999999, 10.62993 627.1658699999999, 10.62993 627.1658699999999, 0 648.4257299999999, 0 648.4257299999999, 10.62993 669.6855899999999, 10.62993 669.6855899999999, 0 690.9454499999999, 0 690.9454499999999, 10.62993 712.2053099999999, 10.62993 712.2053099999999, 0 733.46517, 0 733.46517, 10.62993 754.72503, 10.62993 754.72503, 0 775.98489, 0 775.98489, 10.62993 797.24475, 10.62993 797.24475, 0 818.50461, 0 818.50461, 10.62993 839.76447, 10.62993 839.76447, 0 861.02433, 0 861.02433, 10.62993 882.28419, 10.62993 882.28419, 0 903.54405, 0 903.54405, 10.62993 924.80391, 10.62993 924.80391, 0 946.06377, 0 946.06377, 10.62993 967.32363, 10.62993 967.32363, 0 988.58349, 0 988.58349, 10.62993 1009.84335, 10.62993 1009.84335, 0 1031.10321, 0 1031.10321, 10.62993 1052.36307, 10.62993 1052.36307, 0 1073.62293, 0 1073.62293, 10.62993 1094.88279, 10.62993 1094.88279, 0 1116.14265, 0 1116.14265, 10.62993 1137.4025100000001, 10.62993 1137.4025100000001, 0 1158.66237, 0 1158.66237, 10.62993 1179.9222300000001, 10.62993 1179.9222300000001, 0 1201.18209, 0 1201.18209, 10.62993 1222.4419500000001, 10.62993 1222.4419500000001, 0 1243.70181, 0 1243.70181, 10.62993 1264.9616700000001, 10.62993 1264.9616700000001, 0 1286.22153, 0 1286.22153, 10.62993 1307.4813900000001, 10.62993 1307.4813900000001, 0 1328.74125, 0 1328.74125, 10.62993 1350.0011100000002, 10.62993 1350.0011100000002, 0 1376.575935, 0 1376.575935, 10.62993 1392.52083, 10.62993 1392.52083, 31.889789999999998 1403.15076, 31.889789999999998 1403.15076, 63.779579999999996 1392.52083, 63.779579999999996 1392.52083, 85.03944 1403.15076, 85.03944 1403.15076, 106.29929999999999 1392.52083, 106.29929999999999 1392.52083, 127.55915999999999 1403.15076, 127.55915999999999 1403.15076, 148.81902 1392.52083, 148.81902 1392.52083, 170.07888 1403.15076, 170.07888 1403.15076, 201.96866999999997 1392.52083, 201.96866999999997 1392.52083, 223.22853 1376.575935, 223.22853 1376.575935, 233.85846 1350.0011100000002, 233.85846 1350.0011100000002, 223.22853 1328.74125, 223.22853 1328.74125, 233.85846 1307.4813900000001, 233.85846 1307.4813900000001, 223.22853 1286.22153, 223.22853 1286.22153, 233.85846 1264.9616700000001, 233.85846 1264.9616700000001, 223.22853 1243.70181, 223.22853 1243.70181, 233.85846 1222.4419500000001, 233.85846 1222.4419500000001, 223.22853 1201.18209, 223.22853 1201.18209, 233.85846 1179.9222300000001, 233.85846 1179.9222300000001, 223.22853 1158.66237, 223.22853 1158.66237, 233.85846 1137.4025100000001, 233.85846 1137.4025100000001, 223.22853 1116.14265, 223.22853 1116.14265, 233.85846 1094.88279, 233.85846 1094.88279, 223.22853 1073.62293, 223.22853 1073.62293, 233.85846 1052.36307, 233.85846 1052.36307, 223.22853 1031.10321, 223.22853 1031.10321, 233.85846 1009.84335, 233.85846 1009.84335, 223.22853 988.58349, 223.22853 988.58349, 233.85846 967.32363, 233.85846 967.32363, 223.22853 946.06377, 223.22853 946.06377, 233.85846 924.80391, 233.85846 924.80391, 223.22853 903.54405, 223.22853 903.54405, 233.85846 882.28419, 233.85846 882.28419, 223.22853 861.02433, 223.22853 861.02433, 233.85846 839.76447, 233.85846 839.76447, 223.22853 818.50461, 223.22853 818.50461, 233.85846 797.24475, 233.85846 797.24475, 223.22853 775.98489, 223.22853 775.98489, 233.85846 754.72503, 233.85846 754.72503, 223.22853 733.46517, 223.22853 733.46517, 233.85846 712.2053099999999, 233.85846 712.2053099999999, 223.22853 690.9454499999999, 223.22853 690.9454499999999, 233.85846 669.6855899999999, 233.85846 669.6855899999999, 223.22853 648.4257299999999, 223.22853 648.4257299999999, 233.85846 627.1658699999999, 233.85846 627.1658699999999, 223.22853 605.9060099999999, 223.22853 605.9060099999999, 233.85846 584.6461499999999, 233.85846 584.6461499999999, 223.22853 563.3862899999999, 223.22853 563.3862899999999, 233.85846 542.12643, 233.85846 542.12643, 223.22853 520.86657, 223.22853 520.86657, 233.85846 499.60671, 233.85846 499.60671, 223.22853 478.34685, 223.22853 478.34685, 233.85846 457.08699, 233.85846 457.08699, 223.22853 435.82713, 223.22853 435.82713, 233.85846 414.56727, 233.85846 414.56727, 223.22853 393.30741, 223.22853 393.30741, 233.85846 372.04755, 233.85846 372.04755, 223.22853 350.78769, 223.22853 350.78769, 233.85846 329.52783, 233.85846 329.52783, 223.22853 308.26797, 223.22853 308.26797, 233.85846 287.00811, 233.85846 287.00811, 223.22853 265.74825, 223.22853 265.74825, 233.85846 244.48839, 233.85846 244.48839, 223.22853 223.22853, 223.22853 223.22853, 233.85846 201.96867, 233.85846 201.96867, 223.22853 180.70881, 223.22853 180.70881, 233.85846 159.44895, 233.85846 159.44895, 223.22853 138.18909, 223.22853 138.18909, 233.85846 116.92922999999999, 233.85846 116.92922999999999, 223.22853 95.66937, 223.22853 95.66937, 233.85846 74.40951, 233.85846 74.40951, 223.22853 53.14965, 223.22853 53.14965, 233.85846 26.574825, 233.85846 26.574825, 223.22853 10.62993, 223.22852999999998 10.62993, 201.96866999999997 0, 201.96866999999997 0, 170.07888 10.62993, 170.07888 10.62993, 148.81902 0, 148.81902 0, 127.55915999999999 10.62993, 127.55915999999999 10.62993, 106.29929999999999 0, 106.29929999999999 0, 85.03944 10.62993, 85.03944 10.62993, 63.779579999999996 0, 63.779579999999996 0, 31.889789999999998 10.62993, 31.889789999999998 "
       id="polygon22" />
  </g>
  <rect
     style="fill:none;fill-opacity:1;fill-rule:nonzero;stroke:#000000;stroke-width:0.5193159;stroke-miterlimit:4;stroke-dasharray:none;stroke-opacity:1"
     id="rect4542"
     width="229.79584"
     height="116.40991"
     x="112.76704"
     y="198.15352" />
  <rect
     style="fill:none;fill-opacity:1;fill-rule:nonzero;stroke:#000000;stroke-width:0.5193159;stroke-miterlimit:4;stroke-dasharray:none;stroke-opacity:1"
     id="rect4542-1"
     width="229.79584"
     height="116.40991"
     x="431.85059"
     y="198.15352" />
  <rect
     style="fill:none;fill-opacity:1;fill-rule:nonzero;stroke:#000000;stroke-width:0.5193159;stroke-miterlimit:4;stroke-dasharray:none;stroke-opacity:1"
     id="rect4542-6"
     width="229.79584"
     height="116.40991"
     x="786.12683"
     y="198.15352" />
  <rect
     style="fill:none;fill-opacity:1;fill-rule:nonzero;stroke:#000000;stroke-width:0.5193159;stroke-miterlimit:4;stroke-dasharray:none;stroke-opacity:1"
     id="rect4542-2"
     width="229.79584"
     height="116.40991"
     x="1105.0439"
     y="198.15352" />
  <rect
     style="fill:none;fill-opacity:1;fill-rule:nonzero;stroke:#ff0000;stroke-width:0.93373382;stroke-miterlimit:4;stroke-dasharray:none;stroke-opacity:1"
     id="rect4571"
     width="69.932465"
     height="13.225882"
     x="33.129948"
     y="253.76251" />
  <rect
     style="fill:none;fill-opacity:1;fill-rule:nonzero;stroke:#ff0000;stroke-width:0.59336597;stroke-miterlimit:4;stroke-dasharray:none;stroke-opacity:1"
     id="rect4542-5"
     width="247.43832"
     height="141.13904"
     x="103.94579"
     y="185.78896" />
  <rect
     style="fill:none;fill-opacity:1;fill-rule:nonzero;stroke:#ff0000;stroke-width:0.59336597;stroke-miterlimit:4;stroke-dasharray:none;stroke-opacity:1"
     id="rect4542-1-6"
     width="247.43832"
     height="141.13904"
     x="423.02936"
     y="185.78896" />
  <rect
     style="fill:none;fill-opacity:1;fill-rule:nonzero;stroke:#ff0000;stroke-width:0.59336597;stroke-miterlimit:4;stroke-dasharray:none;stroke-opacity:1"
     id="rect4542-6-2"
     width="247.43832"
     height="141.13904"
     x="777.3056"
     y="185.78896" />
  <rect
     style="fill:none;fill-opacity:1;fill-rule:nonzero;stroke:#ff0000;stroke-width:0.59336597;stroke-miterlimit:4;stroke-dasharray:none;stroke-opacity:1"
     id="rect4542-2-6"
     width="247.43832"
     height="141.13904"
     x="1096.2227"
     y="185.78896" />
  <rect
     style="fill:none;fill-opacity:1;fill-rule:nonzero;stroke:#ff0000;stroke-width:0.93373382;stroke-miterlimit:4;stroke-dasharray:none;stroke-opacity:1"
     id="rect4571-5"
     width="69.932465"
     height="13.225882"
     x="352.15085"
     y="249.62637" />
  <rect
     style="fill:none;fill-opacity:1;fill-rule:nonzero;stroke:#ff0000;stroke-width:0.93373382;stroke-miterlimit:4;stroke-dasharray:none;stroke-opacity:1"
     id="rect4571-1"
     width="69.932465"
     height="13.225882"
     x="1025.3494"
     y="249.24072" />
  <rect
     style="fill:none;fill-opacity:1;fill-rule:nonzero;stroke:#ff0000;stroke-width:0.93373382;stroke-miterlimit:4;stroke-dasharray:none;stroke-opacity:1"
     id="rect4571-4"
     width="69.932465"
     height="13.225882"
     x="1344.2622"
     y="253.76251" />
  <rect
     style="fill:none;fill-opacity:1;fill-rule:nonzero;stroke:#ff0000;stroke-width:1.13622665;stroke-miterlimit:4;stroke-dasharray:none;stroke-opacity:1"
     id="rect4571-3"
     width="105.16307"
     height="13.023389"
     x="671.29407"
     y="260.80341" />
  <rect
     style="fill:none;fill-opacity:1;fill-rule:nonzero;stroke:#000000;stroke-width:0.35609072;stroke-miterlimit:4;stroke-dasharray:none;stroke-opacity:1"
     id="rect4639"
     width="6.7305288"
     height="88.226662"
     x="2534.9695"
     y="-1416.1317"
     ry="5.360683"
     transform="rotate(30)" />
  <rect
     style="fill:none;fill-opacity:1;fill-rule:nonzero;stroke:#000000;stroke-width:0.35609072;stroke-miterlimit:4;stroke-dasharray:none;stroke-opacity:1"
     id="rect4639-0"
     width="6.7305288"
     height="88.226662"
     x="2563.7649"
     y="-1432.7567"
     ry="5.360683"
     transform="rotate(30)" />
  <rect
     style="fill:none;fill-opacity:1;fill-rule:nonzero;stroke:#000000;stroke-width:0.35609072;stroke-miterlimit:4;stroke-dasharray:none;stroke-opacity:1"
     id="rect4639-7"
     width="6.7305288"
     height="88.226662"
     x="2592.5603"
     y="-1449.3818"
     ry="5.360683"
     transform="rotate(30)" />
  <rect
     style="fill:none;fill-opacity:1;fill-rule:nonzero;stroke:#000000;stroke-width:0.35609072;stroke-miterlimit:4;stroke-dasharray:none;stroke-opacity:1"
     id="rect4639-9"
     width="6.7305288"
     height="88.226662"
     x="2621.3555"
     y="-1466.0068"
     ry="5.360683"
     transform="rotate(30)" />
  <rect
     style="fill:none;fill-opacity:1;fill-rule:nonzero;stroke:#000000;stroke-width:0.35609072;stroke-miterlimit:4;stroke-dasharray:none;stroke-opacity:1"
     id="rect4639-03"
     width="6.7305288"
     height="88.226662"
     x="2650.1511"
     y="-1482.6318"
     ry="5.360683"
     transform="rotate(30)" />
  <rect
     style="fill:none;fill-opacity:1;fill-rule:nonzero;stroke:#000000;stroke-width:0.35609072;stroke-miterlimit:4;stroke-dasharray:none;stroke-opacity:1"
     id="rect4639-3"
     width="6.7305288"
     height="88.226662"
     x="2285.24"
     y="-1271.9503"
     ry="5.360683"
     transform="rotate(30)" />
  <rect
     style="fill:none;fill-opacity:1;fill-rule:nonzero;stroke:#000000;stroke-width:0.35609072;stroke-miterlimit:4;stroke-dasharray:none;stroke-opacity:1"
     id="rect4639-0-3"
     width="6.7305288"
     height="88.226662"
     x="2317.0168"
     y="-1290.2966"
     ry="5.360683"
     transform="rotate(30)" />
  <rect
     style="fill:none;fill-opacity:1;fill-rule:nonzero;stroke:#000000;stroke-width:0.35609072;stroke-miterlimit:4;stroke-dasharray:none;stroke-opacity:1"
     id="rect4639-7-0"
     width="6.7305288"
     height="88.226662"
     x="2348.7937"
     y="-1308.6431"
     ry="5.360683"
     transform="rotate(30)" />
  <rect
     style="fill:none;fill-opacity:1;fill-rule:nonzero;stroke:#000000;stroke-width:0.35609072;stroke-miterlimit:4;stroke-dasharray:none;stroke-opacity:1"
     id="rect4639-1-1"
     width="6.7305288"
     height="88.226662"
     x="2380.5706"
     y="-1326.9894"
     ry="5.360683"
     transform="rotate(30)" />
  <rect
     style="fill:none;fill-opacity:1;fill-rule:nonzero;stroke:#000000;stroke-width:0.35609072;stroke-miterlimit:4;stroke-dasharray:none;stroke-opacity:1"
     id="rect4639-9-7"
     width="6.7305288"
     height="88.226662"
     x="2412.3474"
     y="-1345.3358"
     ry="5.360683"
     transform="rotate(30)" />
  <rect
     style="fill:none;fill-opacity:1;fill-rule:nonzero;stroke:#000000;stroke-width:0.35609072;stroke-miterlimit:4;stroke-dasharray:none;stroke-opacity:1"
     id="rect4639-03-1"
     width="6.7305288"
     height="88.226662"
     x="2444.1243"
     y="-1363.6821"
     ry="5.360683"
     transform="rotate(30)" />
  <rect
     style="fill:none;fill-opacity:1;fill-rule:nonzero;stroke:#000000;stroke-width:0.35609072;stroke-miterlimit:4;stroke-dasharray:none;stroke-opacity:1"
     id="rect4639-3-0"
     width="6.7305288"
     height="88.226662"
     x="2094.5789"
     y="-1161.8719"
     ry="5.360683"
     transform="rotate(30)" />
  <rect
     style="fill:none;fill-opacity:1;fill-rule:nonzero;stroke:#000000;stroke-width:0.35609072;stroke-miterlimit:4;stroke-dasharray:none;stroke-opacity:1"
     id="rect4639-0-3-0"
     width="6.7305288"
     height="88.226662"
     x="2126.3555"
     y="-1180.2183"
     ry="5.360683"
     transform="rotate(30)" />
  <rect
     style="fill:none;fill-opacity:1;fill-rule:nonzero;stroke:#000000;stroke-width:0.35609072;stroke-miterlimit:4;stroke-dasharray:none;stroke-opacity:1"
     id="rect4639-7-0-6"
     width="6.7305288"
     height="88.226662"
     x="2158.1326"
     y="-1198.5647"
     ry="5.360683"
     transform="rotate(30)" />
  <rect
     style="fill:none;fill-opacity:1;fill-rule:nonzero;stroke:#000000;stroke-width:0.35609072;stroke-miterlimit:4;stroke-dasharray:none;stroke-opacity:1"
     id="rect4639-1-1-4"
     width="6.7305288"
     height="88.226662"
     x="2189.9094"
     y="-1216.9111"
     ry="5.360683"
     transform="rotate(30)" />
  <rect
     style="fill:none;fill-opacity:1;fill-rule:nonzero;stroke:#000000;stroke-width:0.35609072;stroke-miterlimit:4;stroke-dasharray:none;stroke-opacity:1"
     id="rect4639-9-7-3"
     width="6.7305288"
     height="88.226662"
     x="2221.686"
     y="-1235.2576"
     ry="5.360683"
     transform="rotate(30)" />
  <rect
     style="fill:none;fill-opacity:1;fill-rule:nonzero;stroke:#000000;stroke-width:0.35609072;stroke-miterlimit:4;stroke-dasharray:none;stroke-opacity:1"
     id="rect4639-03-1-2"
     width="6.7305288"
     height="88.226662"
     x="2253.4631"
     y="-1253.604"
     ry="5.360683"
     transform="rotate(30)" />
  <rect
     style="fill:none;fill-opacity:1;fill-rule:nonzero;stroke:#000000;stroke-width:0.35609072;stroke-miterlimit:4;stroke-dasharray:none;stroke-opacity:1"
     id="rect4639-3-9"
     width="6.7305288"
     height="88.226662"
     x="1903.9176"
     y="-1051.7937"
     ry="5.360683"
     transform="rotate(30)" />
  <rect
     style="fill:none;fill-opacity:1;fill-rule:nonzero;stroke:#000000;stroke-width:0.35609072;stroke-miterlimit:4;stroke-dasharray:none;stroke-opacity:1"
     id="rect4639-0-3-1"
     width="6.7305288"
     height="88.226662"
     x="1935.6943"
     y="-1070.14"
     ry="5.360683"
     transform="rotate(30)" />
  <rect
     style="fill:none;fill-opacity:1;fill-rule:nonzero;stroke:#000000;stroke-width:0.35609072;stroke-miterlimit:4;stroke-dasharray:none;stroke-opacity:1"
     id="rect4639-7-0-1"
     width="6.7305288"
     height="88.226662"
     x="1967.4713"
     y="-1088.4865"
     ry="5.360683"
     transform="rotate(30)" />
  <rect
     style="fill:none;fill-opacity:1;fill-rule:nonzero;stroke:#000000;stroke-width:0.35609072;stroke-miterlimit:4;stroke-dasharray:none;stroke-opacity:1"
     id="rect4639-1-1-6"
     width="6.7305288"
     height="88.226662"
     x="1999.2482"
     y="-1106.8328"
     ry="5.360683"
     transform="rotate(30)" />
  <rect
     style="fill:none;fill-opacity:1;fill-rule:nonzero;stroke:#000000;stroke-width:0.35609072;stroke-miterlimit:4;stroke-dasharray:none;stroke-opacity:1"
     id="rect4639-9-7-1"
     width="6.7305288"
     height="88.226662"
     x="2031.0249"
     y="-1125.1792"
     ry="5.360683"
     transform="rotate(30)" />
  <rect
     style="fill:none;fill-opacity:1;fill-rule:nonzero;stroke:#000000;stroke-width:0.35609072;stroke-miterlimit:4;stroke-dasharray:none;stroke-opacity:1"
     id="rect4639-03-1-0"
     width="6.7305288"
     height="88.226662"
     x="2062.802"
     y="-1143.5255"
     ry="5.360683"
     transform="rotate(30)" />
  <rect
     style="fill:none;fill-opacity:1;fill-rule:nonzero;stroke:#000000;stroke-width:0.35609072;stroke-miterlimit:4;stroke-dasharray:none;stroke-opacity:1"
     id="rect4639-3-97"
     width="6.7305288"
     height="88.226662"
     x="1713.2565"
     y="-941.71539"
     ry="5.360683"
     transform="rotate(30)" />
  <rect
     style="fill:none;fill-opacity:1;fill-rule:nonzero;stroke:#000000;stroke-width:0.35609072;stroke-miterlimit:4;stroke-dasharray:none;stroke-opacity:1"
     id="rect4639-0-3-9"
     width="6.7305288"
     height="88.226662"
     x="1745.0332"
     y="-960.06177"
     ry="5.360683"
     transform="rotate(30)" />
  <rect
     style="fill:none;fill-opacity:1;fill-rule:nonzero;stroke:#000000;stroke-width:0.35609072;stroke-miterlimit:4;stroke-dasharray:none;stroke-opacity:1"
     id="rect4639-7-0-3"
     width="6.7305288"
     height="88.226662"
     x="1776.8102"
     y="-978.40814"
     ry="5.360683"
     transform="rotate(30)" />
  <rect
     style="fill:none;fill-opacity:1;fill-rule:nonzero;stroke:#000000;stroke-width:0.35609072;stroke-miterlimit:4;stroke-dasharray:none;stroke-opacity:1"
     id="rect4639-1-1-8"
     width="6.7305288"
     height="88.226662"
     x="1808.5869"
     y="-996.75452"
     ry="5.360683"
     transform="rotate(30)" />
  <rect
     style="fill:none;fill-opacity:1;fill-rule:nonzero;stroke:#000000;stroke-width:0.35609072;stroke-miterlimit:4;stroke-dasharray:none;stroke-opacity:1"
     id="rect4639-9-7-15"
     width="6.7305288"
     height="88.226662"
     x="1840.3639"
     y="-1015.101"
     ry="5.360683"
     transform="rotate(30)" />
  <rect
     style="fill:none;fill-opacity:1;fill-rule:nonzero;stroke:#000000;stroke-width:0.35609072;stroke-miterlimit:4;stroke-dasharray:none;stroke-opacity:1"
     id="rect4639-03-1-8"
     width="6.7305288"
     height="88.226662"
     x="1872.1407"
     y="-1033.4473"
     ry="5.360683"
     transform="rotate(30)" />
  <rect
     style="fill:none;fill-opacity:1;fill-rule:nonzero;stroke:#000000;stroke-width:0.35609072;stroke-miterlimit:4;stroke-dasharray:none;stroke-opacity:1"
     id="rect4639-3-6"
     width="6.7305288"
     height="88.226662"
     x="1459.0414"
     y="-794.94434"
     ry="5.360683"
     transform="rotate(30)" />
  <rect
     style="fill:none;fill-opacity:1;fill-rule:nonzero;stroke:#000000;stroke-width:0.35609072;stroke-miterlimit:4;stroke-dasharray:none;stroke-opacity:1"
     id="rect4639-0-3-6"
     width="6.7305288"
     height="88.226662"
     x="1522.5952"
     y="-831.63715"
     ry="5.360683"
     transform="rotate(30)" />
  <rect
     style="fill:none;fill-opacity:1;fill-rule:nonzero;stroke:#000000;stroke-width:0.35609072;stroke-miterlimit:4;stroke-dasharray:none;stroke-opacity:1"
     id="rect4639-7-0-4"
     width="6.7305288"
     height="88.226662"
     x="1586.1489"
     y="-868.32983"
     ry="5.360683"
     transform="rotate(30)" />
  <rect
     style="fill:none;fill-opacity:1;fill-rule:nonzero;stroke:#000000;stroke-width:0.35609072;stroke-miterlimit:4;stroke-dasharray:none;stroke-opacity:1"
     id="rect4639-1-1-87"
     width="6.7305288"
     height="88.226662"
     x="1617.9258"
     y="-886.67621"
     ry="5.360683"
     transform="rotate(30)" />
  <rect
     style="fill:none;fill-opacity:1;fill-rule:nonzero;stroke:#000000;stroke-width:0.35609072;stroke-miterlimit:4;stroke-dasharray:none;stroke-opacity:1"
     id="rect4639-9-7-0"
     width="6.7305288"
     height="88.226662"
     x="1649.7026"
     y="-905.02258"
     ry="5.360683"
     transform="rotate(30)" />
  <rect
     style="fill:none;fill-opacity:1;fill-rule:nonzero;stroke:#000000;stroke-width:0.35609072;stroke-miterlimit:4;stroke-dasharray:none;stroke-opacity:1"
     id="rect4639-03-1-9"
     width="6.7305288"
     height="88.226662"
     x="1681.4795"
     y="-923.36908"
     ry="5.360683"
     transform="rotate(30)" />
  <rect
     style="fill:none;fill-opacity:1;fill-rule:nonzero;stroke:#000000;stroke-width:0.35609072;stroke-miterlimit:4;stroke-dasharray:none;stroke-opacity:1"
     id="rect4639-3-2"
     width="6.7305288"
     height="88.226662"
     x="1331.934"
     y="-721.55878"
     ry="5.360683"
     transform="rotate(30)" />
  <rect
     style="fill:none;fill-opacity:1;fill-rule:nonzero;stroke:#000000;stroke-width:0.35609072;stroke-miterlimit:4;stroke-dasharray:none;stroke-opacity:1"
     id="rect4639-0-3-3"
     width="6.7305288"
     height="88.226662"
     x="1363.7109"
     y="-739.90521"
     ry="5.360683"
     transform="rotate(30)" />
  <rect
     style="fill:none;fill-opacity:1;fill-rule:nonzero;stroke:#000000;stroke-width:0.35609072;stroke-miterlimit:4;stroke-dasharray:none;stroke-opacity:1"
     id="rect4639-7-0-8"
     width="6.7305288"
     height="88.226662"
     x="1395.4878"
     y="-758.25159"
     ry="5.360683"
     transform="rotate(30)" />
  <rect
     style="fill:none;fill-opacity:1;fill-rule:nonzero;stroke:#000000;stroke-width:0.35609072;stroke-miterlimit:4;stroke-dasharray:none;stroke-opacity:1"
     id="rect4639-1-1-5"
     width="6.7305288"
     height="88.226662"
     x="1427.2646"
     y="-776.59796"
     ry="5.360683"
     transform="rotate(30)" />
  <rect
     style="fill:none;fill-opacity:1;fill-rule:nonzero;stroke:#000000;stroke-width:0.35609072;stroke-miterlimit:4;stroke-dasharray:none;stroke-opacity:1"
     id="rect4639-9-7-11"
     width="6.7305288"
     height="88.226662"
     x="1490.8184"
     y="-813.29077"
     ry="5.360683"
     transform="rotate(30)" />
  <rect
     style="fill:none;fill-opacity:1;fill-rule:nonzero;stroke:#000000;stroke-width:0.35609072;stroke-miterlimit:4;stroke-dasharray:none;stroke-opacity:1"
     id="rect4639-03-1-7"
     width="6.7305288"
     height="88.226662"
     x="1554.3721"
     y="-849.98352"
     ry="5.360683"
     transform="rotate(30)" />
  <rect
     style="fill:none;fill-opacity:1;fill-rule:nonzero;stroke:#000000;stroke-width:0.94955271;stroke-miterlimit:4;stroke-dasharray:none;stroke-opacity:1"
     id="rect4804"
     width="34.483547"
     height="34.483547"
     x="2928.489"
     y="180.65208"
     ry="7.1619787" />
</svg>
